<?xml version="1.0" encoding="UTF-8"?>
<svg id="Layer_1" xmlns="http://www.w3.org/2000/svg" version="1.1" viewBox="0 0 1080 1080">
  <!-- Generator: Adobe Illustrator 29.6.1, SVG Export Plug-In . SVG Version: 2.1.1 Build 9)  -->
  <defs>
    <style>
      .st0 {
        fill: #003c3c;
      }
    </style>
  </defs>
  <path class="st0" d="M1005.1,878.9c-315,38.3-533-74.5-533-74.5,271.8,50,469.8-89.5,469.8-89.5-329.3,114.7-561,0-561,0L266.1,68.4c-177.7,275-91.9,527.3-91.9,527.3-30.9-33-63.9-7.5-63.9-7.5l-27.7-7.5,14.9,26.6c-37.3,47.9,138.6,167.2,138.6,167.2,102.3,190.6,194,236.4,194,236.4l-22.4-139.5c383.7,137.4,597.4,7.5,597.4,7.5Z"/>
  <path class="st0" d="M780.7,570.1l7.8,85.7s47.2-40.8,78.9-168.6c0,0,85.9-96.8,56.7-119.5l4.8-18-15.2,8.6s-23.4-10.1-36.6,14c0,0,12.7-161.7-133.5-297.4l29.4,398.7s-119.5,102.5-331.1,84.2c0,0,137.9,52.7,290.7-17.7,0,0-111.7,99.3-303.3,124,0,0,145.7,44.6,351.5-94Z"/>
</svg>