<?xml version="1.0" encoding="UTF-8"?>
<svg id="Layer_1" xmlns="http://www.w3.org/2000/svg" version="1.1" viewBox="0 0 1920 798.8">
  <!-- Generator: Adobe Illustrator 29.6.1, SVG Export Plug-In . SVG Version: 2.1.1 Build 9)  -->
  <defs>
    <style>
      .st0 {
        fill: #99cde6;
      }
    </style>
  </defs>
  <path class="st0" d="M1531.7,421.4c-5-6.9-10.8-13-17.6-18.1-15-11.3-33.3-17-54.9-17s-44.5,5.7-64.6,17.2c-20,11.5-36.9,27.3-50.5,47.3-10.1,14.9-17.4,31-21.8,48.4.2-17.3-2.8-33.3-9.2-48.1-8.7-20.2-22.7-36-41.9-47.6-19.2-11.5-40.7-17.3-66.3-17.3s-49.5,5.8-71.7,17.3c-22.2,11.5-40.7,27.3-55.4,47.3-14.8,20-23.8,42.4-27.1,67-3.3,24.6-.5,47,8.4,67,.2.4.3.7.5,1.1l-38.3-69.1,102.3-124.6h-83.3l-71.5,93.1h-26.1l27.6-196.6h-69.5l-26.8,190.7c-2.3-15.5-7.4-29.5-15.3-42.2-10-15.9-23.7-28.4-41.1-37.5-17.4-9-37.3-13.6-59.6-13.6s-49.5,5.8-71.7,17.3c-22.2,11.5-40.7,27.3-55.4,47.3-8.3,11.2-14.7,23.1-19.4,35.7-1.2-12.6-4.2-24.5-9.2-35.7-8.9-20-22.7-35.8-41.6-47.3-18.9-11.5-41-17.3-66.3-17.3s-49.1,5.8-71.5,17.3c-22.3,11.5-40.9,27.3-55.7,47.3-14.8,20-23.8,42.4-27.1,67-2.8,20.8-1.2,40,4.7,57.5h-16.1l24.9-176.5h.2s7.1-52,7.1-52c4.4-32.1-2.4-64.6-23.7-89h0c-21.3-24.4-45.8-38.4-82.6-38.4s-52.8,9.6-73.2,27.1c-20.4,17.5-33.8,41.8-37.8,68.3l-9.6,68.7h-46.6l-10.3,68.6h47.2l-27.7,188.5c-3.3,21.5-21.4,37.1-43.2,37.1s-7.7-.5-11.3-1.5l-10.2,68c7,1.4,14.2,2.1,21.5,2.1,26.8,0,54.4-9.6,74.8-27.1,20.4-17.5,33.8-41.8,37.8-68.3l27.8-198.8h45.2l10.4-68.6h-45.7l2.6-19.6,5.2-38.8c3.3-21.5,21.4-37.1,43.2-37.1,41.2,0,40.1,36.9,38.4,49.6l-33.7,237.8h-.2l-6.7,48.9-2.7,19.3h0v.4c0,0,92.3,0,92.3,0l7.8-56.2c8.9,18.7,22.3,33.5,40.3,44.4,18.9,11.5,41.5,17.3,66.8,17.3s49.1-5.7,71.5-17.3c22.3-11.5,40.8-27.3,55.4-47.3,8.1-11.2,14.5-23,19.2-35.6,1.2,12.6,4.2,24.5,9.2,35.6,8.9,20,22.8,35.8,41.6,47.3h0c18.9,11.5,41.1,17.2,66.8,17.2s43.5-4.5,63.6-13.6c20-9,37.4-21.5,52-37.5,11.6-12.7,20.7-26.7,27.2-42.2l-12.2,87.3h69.5l13.3-95.1h25.5l47.4,95.1h84.8l-23.6-42.5c8.4,12.6,19.3,22.9,32.8,31.1,18.9,11.5,41.1,17.3,66.8,17.3s58.7-8,84.5-23.9c25.8-15.9,45.3-37.2,58.4-63.8h-74.4c-5.3,7.9-13.3,14.4-24.1,19.5-10.8,5.1-22.3,7.6-34.5,7.6s-23.7-3-32.8-8.9c-9-5.9-15.5-14.2-19.5-24.9-1.6-4.4-2.7-9.1-3.4-14h194.5c.3-.9.6-2.1,1-3.4-.2,17,2.5,32.7,8.1,47.2,7.7,20,20,35.8,37,47.3h0c16.9,11.5,37.7,17.2,59.4,17.2s41.6-5.7,59.9-17.2c8.4-5.3,16.1-11.4,23.2-18.5l-4.2,29.8h69.5l49.8-354.8h-69.5l-18.6,132.6ZM539.2,517.9c-1.3,12.2-5.4,23.2-12.3,33-6.9,9.9-15.7,17.6-26.4,23.2h0c-10.7,5.6-22.1,8.4-34.3,8.4s-22.7-2.8-31.5-8.4-15.4-13.3-19.5-23.2c-4.1-9.9-5.3-20.9-3.7-33,1.6-12.2,5.9-23.2,12.8-33,6.9-9.9,15.6-17.6,26.1-23.2,10.5-5.6,21.8-8.4,34-8.4s22.7,2.8,31.5,8.4c8.9,5.6,15.3,13.3,19.5,23.2,4.1,9.9,5.3,20.9,3.7,33ZM794.4,544c-6.6,11.5-15.6,20.8-27.1,27.8-11.5,7.1-24,10.6-37.5,10.6s-22.3-2.8-31.3-8.4c-9-5.6-15.6-13.3-19.7-23.2-4.1-9.9-5.3-20.9-3.7-33,1.6-12.2,5.9-23.2,12.8-33s15.6-17.6,26.1-23.2c10.5-5.6,21.8-8.4,34-8.4s24.9,3.5,34.2,10.6c9.4,7.1,15.7,16.3,19,27.8h71l-7.3,52.2h-70.6ZM1135.7,480.9c7.1-10.8,15.9-19.2,26.6-25.1,10.7-5.9,21.8-8.9,33.3-8.9s22.6,2.8,31.3,8.4c8.7,5.6,15.2,13.5,19.5,23.7,1.9,4.5,3.2,9.2,3.9,14.3h-121.2c1.9-4.3,4.1-8.4,6.6-12.3ZM1479.1,574.1h0c-10.7,5.6-22.1,8.4-34.2,8.4s-22.7-2.8-31.5-8.4c-8.9-5.6-15.3-13.3-19.2-23.2-3.9-9.9-5.3-20.9-3.9-33,1.6-12.2,5.9-23.2,12.8-33,6.9-9.9,15.7-17.6,26.4-23.2,10.7-5.6,22.4-8.4,34.2-8.4s22.2,2.8,31,8.4c8.9,5.6,15.3,13.3,19.5,23.2,4.1,9.9,5.3,20.9,3.7,33-1.3,12.2-5.4,23.2-12.3,33-6.9,9.9-15.7,17.6-26.4,23.2Z"/>
  <path class="st0" d="M1888.1,321.5c-104.6,12.7-177-24.7-177-24.7,90.2,16.6,156-29.7,156-29.7-109.3,38.1-186.3,0-186.3,0l-38.1-214.6c-59,91.3-30.5,175.1-30.5,175.1-10.3-11-21.2-2.5-21.2-2.5l-9.2-2.5,5,8.8c-12.4,15.9,46,55.5,46,55.5,34,63.3,64.4,78.5,64.4,78.5l-7.4-46.3c127.4,45.6,198.4,2.5,198.4,2.5Z"/>
  <polygon class="st0" points="1642.8 52.3 1642.8 52.4 1642.8 52.3 1642.8 52.3"/>
  <polygon class="st0" points="1801.3 54.5 1801.3 54.5 1801.3 54.5 1801.3 54.5"/>
  <path class="st0" d="M1813.6,218.9l2.6,28.4s15.7-13.5,26.2-56c0,0,28.5-32.1,18.8-39.7l1.6-6-5.1,2.8s-7.8-3.4-12.2,4.6c0,0,4.2-53.7-44.3-98.7l9.8,132.4s-39.7,34-109.9,28c0,0,45.8,17.5,96.5-5.9,0,0-37.1,33-100.7,41.2,0,0,48.4,14.8,116.7-31.2Z"/>
</svg>