<?xml version="1.0" encoding="UTF-8"?>
<svg id="Layer_1" data-name="Layer 1" xmlns="http://www.w3.org/2000/svg" viewBox="0 0 1856.23 694.11">
  <defs>
    <style>
      .cls-1 {
        fill: #d6fe9b;
      }

      .cls-2 {
        fill: #f3f0eb;
      }
    </style>
  </defs>
  <path class="cls-2" d="M1499.8,369.07c-4.98-6.92-10.85-12.95-17.61-18.08-14.95-11.34-33.26-17-54.94-17-23,0-44.53,5.75-64.56,17.25-20.04,11.51-36.89,27.28-50.51,47.31-10.1,14.86-17.36,30.97-21.78,48.35.22-17.31-2.84-33.35-9.2-48.11-8.71-20.2-22.67-36.05-41.89-47.55-19.22-11.5-40.65-17.25-66.28-17.25s-49.53,5.75-71.7,17.25c-22.17,11.51-40.66,27.28-55.44,47.31-14.79,20.05-23.83,42.39-27.11,67.02-3.29,24.64-.49,46.99,8.38,67.02.16.36.33.7.49,1.06l-38.34-69.09,102.32-124.64h-83.28l-71.47,93.14h-26.09l27.58-196.62h-69.48l-26.76,190.74c-2.26-15.45-7.36-29.51-15.32-42.18-10.02-15.93-23.74-28.42-41.15-37.45-17.41-9.03-37.29-13.55-59.63-13.55-25.63,0-49.53,5.75-71.7,17.25-22.17,11.51-40.65,27.28-55.43,47.31-8.26,11.2-14.72,23.11-19.39,35.74-1.16-12.63-4.21-24.54-9.17-35.74-8.87-20.04-22.75-35.81-41.63-47.31-18.89-11.5-40.98-17.25-66.28-17.25s-49.12,5.75-71.45,17.25c-22.35,11.51-40.9,27.28-55.68,47.31-14.79,20.05-23.82,42.39-27.1,67.02-2.78,20.82-1.2,39.99,4.7,57.52h-16.06l24.87-176.53.17.02,7.1-51.99c4.39-32.12-2.39-64.56-23.71-88.99h0c-21.32-24.43-45.75-38.43-82.6-38.43-26.84,0-52.83,9.64-73.19,27.15-20.35,17.51-33.77,41.76-37.79,68.3l-9.6,68.7h-46.59l-10.28,68.58h47.19l-27.73,188.51c-3.26,21.51-21.41,37.13-43.17,37.13-3.9,0-7.68-.51-11.31-1.46L0,692.02c7.03,1.37,14.22,2.09,21.5,2.09,26.84,0,54.43-9.64,74.79-27.14,20.35-17.51,33.77-41.76,37.79-68.3l27.81-198.77h45.15l10.37-68.58h-45.66l2.58-19.62,5.17-38.82c3.26-21.51,21.41-37.13,43.17-37.13,41.2,0,40.09,36.89,38.36,49.57l-33.67,237.77h-.2l-6.69,48.87-2.71,19.27h.08l-.06.44h92.33l7.82-56.2c8.91,18.68,22.33,33.49,40.3,44.42,18.89,11.5,41.47,17.25,66.77,17.25s49.11-5.75,71.45-17.25c22.34-11.5,40.81-27.27,55.43-47.31,8.14-11.17,14.52-23.05,19.15-35.64,1.17,12.6,4.22,24.48,9.16,35.64,8.87,20.05,22.75,35.82,41.64,47.31h0c18.89,11.49,41.15,17.24,66.77,17.24,22.34,0,43.53-4.52,63.57-13.55,20.04-9.03,37.37-21.51,51.99-37.45,11.61-12.65,20.67-26.71,27.21-42.16l-12.24,87.25h69.48l13.34-95.11h25.54l47.36,95.11h84.76l-23.57-42.48c8.38,12.56,19.29,22.95,32.77,31.15,18.89,11.5,41.15,17.25,66.77,17.25,30.55,0,58.72-7.96,84.51-23.9,25.79-15.93,45.25-37.21,58.4-63.82h-74.41c-5.26,7.88-13.31,14.37-24.15,19.46-10.84,5.1-22.35,7.63-34.49,7.63-12.81,0-23.74-2.95-32.77-8.87-9.04-5.91-15.52-14.2-19.46-24.89-1.62-4.39-2.73-9.07-3.36-14.05h194.55c.31-.93.63-2.05.95-3.36-.19,16.95,2.5,32.7,8.1,47.23,7.72,20.05,20.04,35.82,36.96,47.31h-.01c16.91,11.48,37.69,17.23,59.38,17.23s41.64-5.75,59.87-17.25c8.37-5.27,16.09-11.44,23.17-18.47l-4.18,29.82h69.48l49.77-354.81h-69.48l-18.61,132.65ZM507.28,465.56c-1.32,12.16-5.42,23.16-12.32,33.02-6.9,9.86-15.69,17.58-26.37,23.16h0c-10.68,5.59-22.09,8.38-34.25,8.38s-22.67-2.79-31.54-8.38c-8.87-5.59-15.36-13.31-19.46-23.16-4.11-9.86-5.34-20.87-3.69-33.02,1.64-12.15,5.91-23.16,12.81-33.02,6.9-9.86,15.6-17.58,26.12-23.16,10.51-5.58,21.84-8.38,34-8.38s22.66,2.79,31.54,8.38c8.87,5.59,15.35,13.31,19.46,23.16,4.1,9.86,5.33,20.87,3.69,33.02ZM762.52,491.68c-6.58,11.5-15.61,20.78-27.11,27.84-11.51,7.07-23.99,10.6-37.45,10.6-11.83,0-22.26-2.79-31.29-8.38-9.04-5.59-15.61-13.31-19.71-23.16-4.11-9.86-5.34-20.87-3.69-33.02,1.64-12.15,5.91-23.16,12.81-33.02s15.6-17.58,26.12-23.16c10.51-5.58,21.85-8.38,34-8.38,13.47,0,24.89,3.54,34.25,10.6,9.36,7.07,15.68,16.35,18.97,27.85h71l-7.33,52.24h-70.57ZM1103.8,428.6c7.06-10.84,15.93-19.22,26.61-25.13,10.67-5.91,21.76-8.87,33.26-8.87,12.15,0,22.58,2.79,31.29,8.37,8.7,5.59,15.18,13.48,19.46,23.65,1.88,4.48,3.18,9.25,3.91,14.3h-121.18c1.88-4.3,4.1-8.4,6.65-12.32ZM1447.21,521.74h0c-10.68,5.59-22.09,8.38-34.25,8.38s-22.67-2.79-31.54-8.38c-8.87-5.59-15.28-13.31-19.22-23.16-3.94-9.86-5.26-20.87-3.94-33.02,1.64-12.15,5.91-23.16,12.81-33.02,6.9-9.86,15.68-17.58,26.37-23.16,10.67-5.58,22.42-8.38,34.25-8.38s22.18,2.79,31.05,8.38c8.87,5.59,15.35,13.31,19.46,23.16,4.1,9.86,5.33,20.87,3.69,33.02-1.32,12.16-5.42,23.16-12.32,33.02-6.9,9.86-15.69,17.58-26.37,23.16Z"/>
  <path class="cls-1" d="M1856.23,269.11c-104.58,12.73-176.95-24.75-176.95-24.75,90.24,16.61,155.98-29.73,155.98-29.73-109.34,38.09-186.27,0-186.27,0L1610.89.01c-59.01,91.32-30.52,175.06-30.52,175.06-10.26-10.96-21.23-2.47-21.23-2.47l-9.2-2.47,4.96,8.84c-12.39,15.91,46.01,55.51,46.01,55.51,33.97,63.28,64.41,78.48,64.41,78.48l-7.43-46.31c127.4,45.61,198.36,2.47,198.36,2.47Z"/>
  <polygon class="cls-2" points="1610.89 0 1610.89 .01 1610.89 0 1610.89 0"/>
  <polygon class="cls-2" points="1769.4 2.17 1769.41 2.17 1769.41 2.17 1769.4 2.17"/>
  <path class="cls-1" d="M1781.75,166.58l2.58,28.45s15.68-13.54,26.21-55.98c0,0,28.52-32.13,18.82-39.66l1.59-5.96-5.06,2.84s-7.75-3.36-12.16,4.65c0,0,4.23-53.7-44.32-98.74l9.77,132.38s-39.68,34.03-109.93,27.95c0,0,45.77,17.49,96.53-5.86,0,0-37.08,32.98-100.72,41.16,0,0,48.36,14.81,116.7-31.22Z"/>
</svg>